REM DIRINDEX 1\8,1\2\11,1\3\12,1\3\14,1\5\15,1\5\16,1\6\17,1\6\18,1\4\19,1\4\20,1\4\21,1\4\22,1\7\23,1\7\24,1\7\25,1\2\9\26,1\2\9\27,1\2\10\28,1\2\10\29,1\2\10\30,1\2\10\31,1\2\10\32,1\3\13\33,1\3\13\34,1\3\13\35
REM DIRNAME cjc123,folder01,folder02,folder03,folder04,folder05,folder06,folder07,folder08,folder09,folder10,folder11,folder12,folder13,folder14,folder15,folder16,folder17,folder18,folder19,folder20,folder21,folder22,folder23,folder24,folder25,folder26,folder27,folder28,folder29,folder30,folder31,folder32,folder33,folder34
TITLE ""
FILE "73 073_READING_SECTION_Review.mp3" MP3
  TRACK 01 AUDIO
    TITLE "18:cjc123_7102"
    INDEX 01 00:00:00
  TRACK 02 AUDIO
    TITLE "0:"
    INDEX 01 00:02:36
  TRACK 03 AUDIO
    TITLE "18:cjc123_7103"
    INDEX 01 00:03:04
  TRACK 04 AUDIO
    TITLE "0:"
    INDEX 01 00:04:13
  TRACK 05 AUDIO
    TITLE "17:cjc123_7104"
    INDEX 01 00:04:21
  TRACK 06 AUDIO
    TITLE "0:"
    INDEX 01 00:05:28
  TRACK 07 AUDIO
    TITLE "18:cjc123_7105"
    INDEX 01 00:06:04
  TRACK 08 AUDIO
    TITLE "0:"
    INDEX 01 00:07:17
  TRACK 09 AUDIO
    TITLE "17:cjc123_7106"
    INDEX 01 00:07:23
  TRACK 10 AUDIO
    TITLE "0:"
    INDEX 01 00:08:42
  TRACK 11 AUDIO
    TITLE "18:cjc123_7107"
    INDEX 01 00:09:16
  TRACK 12 AUDIO
    TITLE "0:"
    INDEX 01 00:10:33
  TRACK 13 AUDIO
    TITLE "17:cjc123_7108"
    INDEX 01 00:10:51
  TRACK 14 AUDIO
    TITLE "0:"
    INDEX 01 00:11:58
  TRACK 15 AUDIO
    TITLE "18:cjc123_7109"
    INDEX 01 00:12:32
  TRACK 16 AUDIO
    TITLE "0:"
    INDEX 01 00:13:49
  TRACK 17 AUDIO
    TITLE "17:cjc123_7110"
    INDEX 01 00:13:55
  TRACK 18 AUDIO
    TITLE "0:"
    INDEX 01 00:15:01
  TRACK 19 AUDIO
    TITLE "18:cjc123_7111"
    INDEX 01 00:15:48
  TRACK 20 AUDIO
    TITLE "0:"
    INDEX 01 00:16:67
  TRACK 21 AUDIO
    TITLE "17:cjc123_7112"
    INDEX 01 00:17:06
  TRACK 22 AUDIO
    TITLE "0:"
    INDEX 01 00:18:19
  TRACK 23 AUDIO
    TITLE "18:cjc123_7113"
    INDEX 01 00:18:72
  TRACK 24 AUDIO
    TITLE "0:"
    INDEX 01 00:20:16
  TRACK 25 AUDIO
    TITLE "17:cjc123_7114"
    INDEX 01 00:20:26
  TRACK 26 AUDIO
    TITLE "0:"
    INDEX 01 00:21:37
  TRACK 27 AUDIO
    TITLE "18:cjc123_7115"
    INDEX 01 00:22:11
  TRACK 28 AUDIO
    TITLE "0:"
    INDEX 01 00:23:22
  TRACK 29 AUDIO
    TITLE "17:cjc123_7116"
    INDEX 01 00:23:40
  TRACK 30 AUDIO
    TITLE "0:"
    INDEX 01 00:24:51
  TRACK 31 AUDIO
    TITLE "18:cjc123_7117"
    INDEX 01 00:25:25
  TRACK 32 AUDIO
    TITLE "0:"
    INDEX 01 00:26:36
  TRACK 33 AUDIO
    TITLE "17:cjc123_7118"
    INDEX 01 00:26:46
  TRACK 34 AUDIO
    TITLE "0:"
    INDEX 01 00:27:55
  TRACK 35 AUDIO
    TITLE "18:cjc123_7119"
    INDEX 01 00:28:27
  TRACK 36 AUDIO
    TITLE "0:"
    INDEX 01 00:29:46
  TRACK 37 AUDIO
    TITLE "17:cjc123_7120"
    INDEX 01 00:29:60
  TRACK 38 AUDIO
    TITLE "0:"
    INDEX 01 00:30:69
  TRACK 39 AUDIO
    TITLE "18:cjc123_7121"
    INDEX 01 00:31:47
  TRACK 40 AUDIO
    TITLE "0:"
    INDEX 01 00:32:66
  TRACK 41 AUDIO
    TITLE "17:cjc123_7122"
    INDEX 01 00:33:03
  TRACK 42 AUDIO
    TITLE "0:"
    INDEX 01 00:34:28
  TRACK 43 AUDIO
    TITLE "18:cjc123_7123"
    INDEX 01 00:35:00
  TRACK 44 AUDIO
    TITLE "0:"
    INDEX 01 00:36:21
  TRACK 45 AUDIO
    TITLE "17:cjc123_7124"
    INDEX 01 00:36:38
  TRACK 46 AUDIO
    TITLE "0:"
    INDEX 01 00:37:71
  TRACK 47 AUDIO
    TITLE "18:cjc123_7125"
    INDEX 01 00:38:43
  TRACK 48 AUDIO
    TITLE "0:"
    INDEX 01 00:39:56
  TRACK 49 AUDIO
    TITLE "17:cjc123_7126"
    INDEX 01 00:40:03
  TRACK 50 AUDIO
    TITLE "0:"
    INDEX 01 00:41:10
  TRACK 51 AUDIO
    TITLE "18:cjc123_7127"
    INDEX 01 00:41:63
  TRACK 52 AUDIO
    TITLE "0:"
    INDEX 01 00:43:25
  TRACK 53 AUDIO
    TITLE "17:cjc123_7128"
    INDEX 01 00:43:39
  TRACK 54 AUDIO
    TITLE "0:"
    INDEX 01 00:44:46
  TRACK 55 AUDIO
    TITLE "18:cjc123_7129"
    INDEX 01 00:45:26
  TRACK 56 AUDIO
    TITLE "0:"
    INDEX 01 00:46:70
  TRACK 57 AUDIO
    TITLE "17:cjc123_7130"
    INDEX 01 00:47:01
  TRACK 58 AUDIO
    TITLE "0:"
    INDEX 01 00:48:10
  TRACK 59 AUDIO
    TITLE "18:cjc123_7131"
    INDEX 01 00:48:51
  TRACK 60 AUDIO
    TITLE "0:"
    INDEX 01 00:50:05
  TRACK 61 AUDIO
    TITLE "17:cjc123_7132"
    INDEX 01 00:50:25
  TRACK 62 AUDIO
    TITLE "0:"
    INDEX 01 00:51:63
  TRACK 63 AUDIO
    TITLE "18:cjc123_7133"
    INDEX 01 00:52:36
  TRACK 64 AUDIO
    TITLE "0:"
    INDEX 01 00:53:70
  TRACK 65 AUDIO
    TITLE "17:cjc123_7134"
    INDEX 01 00:54:07
  TRACK 66 AUDIO
    TITLE "0:"
    INDEX 01 00:55:12
  TRACK 67 AUDIO
    TITLE "18:cjc123_7135"
    INDEX 01 00:55:61
  TRACK 68 AUDIO
    TITLE "0:"
    INDEX 01 00:57:31
  TRACK 69 AUDIO
    TITLE "17:cjc123_7136"
    INDEX 01 00:57:45
  TRACK 70 AUDIO
    TITLE "0:"
    INDEX 01 00:58:67
  TRACK 71 AUDIO
    TITLE "18:cjc123_7137"
    INDEX 01 00:59:39
  TRACK 72 AUDIO
    TITLE "0:"
    INDEX 01 01:01:01
  TRACK 73 AUDIO
    TITLE "17:cjc123_7138"
    INDEX 01 01:01:07
  TRACK 74 AUDIO
    TITLE "0:"
    INDEX 01 01:02:10
  TRACK 75 AUDIO
    TITLE "18:cjc123_7139"
    INDEX 01 01:02:52
  TRACK 76 AUDIO
    TITLE "0:"
    INDEX 01 01:04:05
  TRACK 77 AUDIO
    TITLE "17:cjc123_7140"
    INDEX 01 01:04:19
  TRACK 78 AUDIO
    TITLE "0:"
    INDEX 01 01:05:26
  TRACK 79 AUDIO
    TITLE "18:cjc123_7141"
    INDEX 01 01:05:71
  TRACK 80 AUDIO
    TITLE "0:"
    INDEX 01 01:07:19
  TRACK 81 AUDIO
    TITLE "17:cjc123_7142"
    INDEX 01 01:07:27
  TRACK 82 AUDIO
    TITLE "0:"
    INDEX 01 01:08:36
  TRACK 83 AUDIO
    TITLE "18:cjc123_7143"
    INDEX 01 01:09:07
  TRACK 84 AUDIO
    TITLE "0:"
    INDEX 01 01:10:45
  TRACK 85 AUDIO
    TITLE "17:cjc123_7144"
    INDEX 01 01:10:61
  TRACK 86 AUDIO
    TITLE "0:"
    INDEX 01 01:12:19
